<?xml version="1.0" encoding="iso-8859-1"?>
<svg height="800px" width="800px" version="1.1" id="Layer_1" xmlns="http://www.w3.org/2000/svg" xmlns:xlink="http://www.w3.org/1999/xlink" 
	 viewBox="0 0 512 512" xml:space="preserve">
<circle style="fill:#FC6F58;" cx="256" cy="256" r="256"/>
<path style="fill:#F1543F;" d="M495.054,347.738L340.673,193.357l-18.966,18.211l-67.279-67.277l-33.776,20.044L106.598,324.379
	l185.127,185.127C385.062,496.471,462.265,433.123,495.054,347.738z"/>
<path style="fill:#FFFFFF;" d="M271.994,208.515l-17.567-64.224l-64.224,17.567c-5.415,1.481-10.021,5.053-12.802,9.93
	l-73.168,128.267c-5.792,10.156-2.257,23.083,7.899,28.877l55.787,31.823c10.156,5.792,23.083,2.257,28.877-7.899l73.168-128.267
	C272.746,219.712,273.477,213.93,271.994,208.515z M231.36,184.729c-5.163-2.946-6.961-9.519-4.017-14.683
	c2.944-5.163,9.519-6.961,14.683-4.017c5.163,2.946,6.961,9.519,4.017,14.682C243.098,185.875,236.525,187.675,231.36,184.729z"/>
<path style="fill:#E6F3FF;" d="M271.994,208.515l-17.567-64.224l-0.212,0.057l-12.298,21.625c0.036,0.021,0.074,0.036,0.11,0.055
	c5.163,2.944,6.961,9.519,4.017,14.682c-2.946,5.163-9.519,6.961-14.682,4.017c-0.028-0.016-0.053-0.036-0.081-0.052L140.147,344.91
	l27.772,15.843c10.156,5.792,23.083,2.257,28.877-7.899l73.168-128.267C272.746,219.712,273.477,213.93,271.994,208.515z"/>
<path style="fill:#324A5E;" d="M337.158,190.947l-58.425-31.934l-31.934,58.425c-2.693,4.927-3.319,10.721-1.739,16.108
	l41.544,141.703c3.289,11.219,15.05,17.648,26.269,14.358l61.631-18.068c11.219-3.289,17.648-15.05,14.358-26.269l-41.544-141.703
	C345.74,198.178,342.085,193.639,337.158,190.947z M291.831,203.686c-5.704,1.672-11.685-1.596-13.357-7.301
	c-1.672-5.704,1.596-11.685,7.301-13.357c5.704-1.672,11.685,1.596,13.357,7.301C300.804,196.034,297.536,202.014,291.831,203.686z"
	/>
<path style="fill:#2B3B4E;" d="M278.475,196.386c-1.512-5.154,1.021-10.523,5.729-12.747l-6.346-23.023l-31.056,56.822
	c-2.693,4.927-3.319,10.721-1.738,16.108l41.544,141.703c3.289,11.219,15.05,17.648,26.269,14.358l26-7.623l-49.042-177.919
	C284.793,204.559,279.952,201.426,278.475,196.386z"/>
</svg>